<svg xmlns="http://www.w3.org/2000/svg" viewBox="0 0 300 80">
  <!-- Icon -->
  <g transform="translate(10, 10)">
    <!-- Face Shape - slightly squaricle/rounded -->
    <path d="M30 60 C 10 60, 0 50, 0 30 C 0 10, 10 0, 30 0 C 45 0, 55 5, 55 20 C 60 15, 65 10, 70 15 C 75 20, 70 30, 60 30 C 60 50, 50 60, 30 60 Z" fill="#1a0089"/>
    <!-- Sprout/Hair tuft - refined above in path but let's make sure it looks like the reference -->
    <!-- Creating a more specific path for the head w/ rising tuft -->
    <path d="M15 35 C 15 15, 25 10, 35 15 C 38 8, 48 5, 55 15 C 58 12, 65 15, 62 25 C 65 35, 60 55, 35 55 C 15 55, 15 45, 15 35 Z" fill="#1a0089" />
    
    <!-- Retrying a cleaner shape: Circle based with a top tuft -->
    <path d="M30 58 A 28 26 0 1 1 54 44 C 58 38, 62 38, 60 50 A 28 26 0 0 1 30 58" fill="#1a0089" fill-rule="evenodd" display="none"/> <!-- hiding testing path -->
    
    <!-- Final Icon Shape Attempt -->
    <path d="M28 60 C12 60 2 48 2 32 C2 18 12 8 26 6 C28 2 34 0 40 4 C44 2 50 4 52 10 C58 12 60 18 56 24 C59 32 58 48 46 56 C40 60 34 60 28 60Z" fill="#1a0089"/>
    
    <!-- Eyes -->
    <circle cx="20" cy="35" r="4" fill="#ffffff"/>
    <circle cx="36" cy="35" r="4" fill="#ffffff"/>
  </g>

  <!-- Text: spryte -->
  <text x="80" y="55" font-family="'Fredoka', cursive" font-weight="600" font-size="40" fill="#1a0089">spryte</text>
  
  <!-- Text: pal -->
  <text x="215" y="55" font-family="'Fredoka', cursive" font-weight="400" font-size="40" fill="#ff5e33" font-style="italic">pal</text>
  
  <!-- "pal" Custom Path if font not available (simulated handwriting) -->
  <!-- Using text for now as web fonts are loaded in index.html -->
</svg>
